<svg width="113" height="77" viewBox="0 0 113 77" fill="none" xmlns="http://www.w3.org/2000/svg">
    <path d="M27.127 7.08074C26.4041 6.99038 25.3551 6.18294 24.665 5.88216C23.421 5.33987 22.2606 5.03992 20.9073 5.03992C15.9361 5.03992 11.4545 5.78105 7.43145 8.84621C6.47519 9.57478 6.05311 10.314 5.39062 11.292C4.44707 12.6848 2.78733 13.9365 2.41038 15.6328C2.01619 17.4066 2.05404 19.2376 2.05404 21.0425C2.05404 24.1041 1.73737 27.5486 2.63713 30.5178C3.26158 32.5785 4.80126 35.0267 6.26526 36.6079C8.31451 38.821 11.8726 39.2511 14.6553 39.3775C17.0883 39.4881 19.5858 39.3707 21.458 37.8388C22.4546 37.0235 24.1429 36.4823 25.3777 36.2353" stroke="#8994DD" stroke-width="4" stroke-linecap="round"/>
    <path d="M30.917 25.4482C30.917 29.0119 30.2929 33.1464 31.3544 36.5431C31.6131 37.371 31.364 37.6586 32.2938 37.8227C33.8912 38.1046 35.7769 37.4208 37.3311 37.11" stroke="#8994DD" stroke-width="4" stroke-linecap="round"/>
    <path d="M48.7014 30.4044C48.2412 30.2204 47.7033 29.4893 47.3084 29.1735C46.7563 28.7317 46.0691 29.1736 45.462 29.465C43.9551 30.1883 43.4536 31.0759 43.4536 32.7206C43.4536 33.6455 44.3619 35.1252 45.3486 35.3445C46.629 35.629 49.8676 34.1552 49.8676 32.672C49.8676 28.8142 49.5587 25.532 47.1141 22.4355C46.0237 21.0544 43.2438 20.9903 41.6233 20.7996C39.8156 20.5869 39.2658 23.845 38.7888 25.1566" stroke="#8994DD" stroke-width="4" stroke-linecap="round"/>
    <path d="M61.5294 16.1187C61.4594 15.559 60.1312 15.066 59.7153 14.7257C59.0169 14.1543 57.1726 15.1952 56.7027 15.6652C55.7853 16.5825 54.3566 17.3603 54.9858 18.8884C55.5937 20.3646 56.6878 21.2833 57.8041 22.1763C58.2627 22.5432 59.1282 22.3802 59.6505 22.8242C60.182 23.276 60.6109 23.9779 61.0111 24.5411C61.8235 25.6845 61.8552 26.8996 62.1125 28.234C62.322 29.3212 62.8418 30.6162 62.6632 31.7326C62.0727 35.4232 57.3917 33.1517 56.5731 30.696" stroke="#8994DD" stroke-width="4" stroke-linecap="round"/>
    <path d="M74.9405 6.78923C74.4843 6.73221 74.3516 5.94122 74.0496 5.63924C73.0694 4.65901 71.6366 3.61793 70.4539 2.88575C68.8742 1.90786 65.9341 1.65344 64.299 2.56181C62.7377 3.42919 62.5328 6.06361 63.0519 7.53429C63.8762 9.87002 67.0015 11.0044 68.8828 12.4582C70.2827 13.5399 76.6695 21.313 74.2116 22.6785C72.6297 23.5573 67.9623 23.7368 67.0687 21.9496" stroke="#8994DD" stroke-width="4" stroke-linecap="round"/>
    <path d="M28.5847 50.5211C27.0185 50.3471 25.8665 48.7719 24.0658 48.7719C21.0791 48.7719 18.8611 48.9751 15.9835 50.0028C11.0611 51.7608 10.8247 58.8247 12.08 63.009C13.4387 67.5379 15.8894 72.0018 20.8264 73.5209C24.8309 74.753 29.063 73.945 32.9579 72.3871" stroke="#8994DD" stroke-width="4" stroke-linecap="round"/>
    <path d="M37.6227 64.2238C35.7568 64.457 36.7993 67.5337 37.0396 68.435C37.4763 70.0724 39.4002 69.8176 40.6677 69.4554C41.2037 69.3023 41.5003 65.9116 41.348 65.4547C40.8069 63.8313 39.2858 64.2238 37.9143 64.2238" stroke="#8994DD" stroke-width="4" stroke-linecap="round"/>
    <path d="M50.1592 68.3054C48.8568 67.9798 49.3377 59.3273 51.4549 59.9154C54.7837 60.84 56.6681 64.0204 57.4478 67.1392" stroke="#8994DD" stroke-width="4" stroke-linecap="round"/>
    <path d="M59.4886 68.0138C58.7767 65.2454 58.1868 63.036 58.4682 60.1097C58.5942 58.7986 58.3133 55.8369 60.0069 55.2506C61.8028 54.629 63.7786 60.4916 64.1371 61.5998C64.6201 63.0928 64.6499 64.9253 65.3195 66.2646" stroke="#8994DD" stroke-width="4" stroke-linecap="round"/>
    <path d="M68.235 59.559C70.7707 59.559 73.1782 60.4361 75.7504 59.6238C76.6963 59.3251 80.8094 58.4308 78.8764 56.4978C77.0138 54.6352 75.9228 54.4987 73.3371 54.619C71.4239 54.7079 68.1342 54.431 67.5871 56.838C66.8972 59.8736 68.2033 62.9034 69.5632 65.5843C70.8007 68.0239 71.5878 69.7632 74.4061 69.7632C76.9566 69.7632 78.41 69.2902 80.6257 68.3054C81.689 67.8329 83.4613 67.0075 83.9785 65.9731" stroke="#8994DD" stroke-width="4" stroke-linecap="round"/>
    <path d="M89.5178 55.1859C88.2282 55.1859 87.3992 55.4541 86.4404 56.2387C84.8577 57.5335 85.4823 58.7568 86.003 60.5795C86.3019 61.6256 86.7301 63.1369 87.5418 63.8674C88.5802 64.802 91.9456 64.9376 93.0163 64.2238" stroke="#8994DD" stroke-width="4" stroke-linecap="round"/>
    <path d="M88.9348 45.8564C92.3938 45.8564 95.7609 46.731 99.2037 46.731C100.224 46.731 101.537 46.9662 102.54 46.6986C103.752 46.3755 105.755 46.4992 106.719 45.8564" stroke="#8994DD" stroke-width="4" stroke-linecap="round"/>
    <path d="M97.0981 37.6931C97.0981 41.7069 96.6914 45.9436 97.2439 49.9218C97.699 53.1986 97.7028 57.8167 99.8516 60.5795C101.382 62.5469 104.897 62.232 107.011 62.9928C108.163 63.4075 110.509 62.2385 110.509 61.0168" stroke="#8994DD" stroke-width="4" stroke-linecap="round"/>
</svg>
