<svg width="26" height="26" viewBox="0 0 26 26" fill="none" xmlns="http://www.w3.org/2000/svg">
<path fill-rule="evenodd" clip-rule="evenodd" d="M11.1874 13.3985L3.52982 10.8459C1.17661 10.0615 0 9.66933 0 8.94857C0 8.22781 1.17661 7.83561 3.52982 7.0512L22.8638 0.606559C24.5195 0.0546297 25.3474 -0.221335 25.7845 0.215681C26.2215 0.652697 25.9455 1.48059 25.3936 3.13638L18.9489 22.4703C18.1645 24.8235 17.7723 26.0001 17.0516 26.0001C16.3308 26.0001 15.9386 24.8235 15.1542 22.4703L12.6017 14.8127L19.3603 8.05407C19.7508 7.66355 19.7508 7.03038 19.3603 6.63986C18.9698 6.24934 18.3366 6.24934 17.9461 6.63986L11.1874 13.3985Z" fill="#8994DD"/>
</svg>
