<svg width="22" height="22" viewBox="0 0 22 22" fill="none" xmlns="http://www.w3.org/2000/svg">
<rect x="1" y="1" width="20" height="20" rx="3" stroke="#828282" stroke-width="2"/>
<path d="M9.76998 7.57011V6.90012C9.76998 6.73422 9.7879 6.58109 9.82373 6.44071C9.84762 6.31309 9.88942 6.18548 9.94914 6.05786C10.0208 5.91749 10.1223 5.79625 10.2537 5.69416C10.409 5.5793 10.5941 5.5155 10.8091 5.50273C11.0241 5.48997 11.2271 5.52188 11.4183 5.59845C11.6213 5.67502 11.7945 5.79625 11.9378 5.96215C12.0811 6.12805 12.1528 6.32585 12.1528 6.55556L12.1707 7.57011H13.5861C13.6697 7.59563 13.8011 7.60201 13.9802 7.58925C14.1594 7.57649 14.2908 7.57011 14.3744 7.57011C14.5894 7.57011 14.8163 7.57011 15.0552 7.57011C15.2941 7.55734 15.515 7.57649 15.7181 7.62753C15.9211 7.67858 16.0943 7.78067 16.2377 7.93381C16.381 8.08695 16.4646 8.32304 16.4885 8.64208C16.5243 8.98664 16.4765 9.24825 16.3452 9.42691C16.2257 9.59281 16.0585 9.71405 15.8435 9.79062C15.6405 9.85442 15.4135 9.87995 15.1627 9.86718C14.9238 9.85442 14.7029 9.84166 14.4998 9.8289L12.3141 9.84804L12.332 10.384C12.332 10.4861 12.332 10.5755 12.332 10.652C12.332 10.7286 12.3439 10.8179 12.3678 10.92C12.4036 11.0604 12.4574 11.1816 12.529 11.2837C12.6127 11.373 12.6963 11.4688 12.7799 11.5709C12.959 11.7878 13.1621 12.0047 13.389 12.2217C13.6159 12.4259 13.8489 12.6364 14.0877 12.8534C14.3386 13.0576 14.5774 13.2618 14.8044 13.4659C15.0433 13.6701 15.2583 13.8743 15.4494 14.0785C15.6763 14.3337 15.8793 14.6017 16.0585 14.8825C16.2496 15.1632 16.2974 15.5014 16.2018 15.897C16.1302 16.1522 16.0107 16.3245 15.8435 16.4139C15.6763 16.4904 15.4912 16.516 15.2881 16.4904C15.097 16.4521 14.894 16.3883 14.679 16.299C14.4759 16.1969 14.3027 16.0948 14.1594 15.9927C13.5861 15.5971 13.0546 15.176 12.5649 14.7293C12.0752 14.2827 11.5855 13.8169 11.0958 13.3319C11.0838 13.3192 10.9942 13.383 10.827 13.5234C10.6598 13.6637 10.4627 13.8424 10.2358 14.0594C10.0089 14.2635 9.76998 14.4805 9.51916 14.7102C9.26833 14.9271 9.04737 15.1186 8.85626 15.2845C8.66516 15.4376 8.42628 15.6099 8.13962 15.8013C7.85297 15.98 7.56034 16.1267 7.26174 16.2416C6.97508 16.3564 6.6944 16.4139 6.41969 16.4139C6.14498 16.4011 5.92998 16.2799 5.77471 16.0502C5.61944 15.7949 5.54778 15.5716 5.55972 15.3802C5.57166 15.176 5.63138 14.9909 5.73888 14.825C5.84638 14.6591 5.9897 14.4996 6.16886 14.3465C6.34802 14.1933 6.53316 14.0402 6.72426 13.8871C7.11841 13.568 7.55437 13.2043 8.03213 12.796C8.50989 12.3876 8.95182 11.9665 9.35791 11.5326C9.52513 11.3539 9.61471 11.1944 9.62665 11.054C9.65054 10.9009 9.66249 10.7031 9.66249 10.4606L9.6804 9.80976H7.72756C7.32146 9.83528 6.96314 9.82252 6.6526 9.77147C6.37788 9.72043 6.12109 9.6311 5.88221 9.50348C5.65527 9.3631 5.52986 9.14616 5.50597 8.85264C5.49403 8.71226 5.5 8.57189 5.52389 8.43151C5.54778 8.27837 5.58958 8.14438 5.6493 8.02952C5.70902 7.90191 5.79263 7.79981 5.90012 7.72324C6.00762 7.63391 6.13303 7.58287 6.27636 7.57011C6.35997 7.55734 6.44358 7.55096 6.52718 7.55096C6.62274 7.55096 6.72426 7.55096 6.83176 7.55096C6.86759 7.55096 6.94522 7.55096 7.06466 7.55096C7.19605 7.55096 7.33938 7.55734 7.49465 7.57011C7.64992 7.57011 7.79325 7.57011 7.92463 7.57011C8.05602 7.57011 8.1456 7.57011 8.19337 7.57011H9.76998Z" fill="#828282"/>
</svg>
