<svg width="21" height="18" viewBox="0 0 21 18" fill="none" xmlns="http://www.w3.org/2000/svg">
<path d="M0.670782 17.3348C0.576697 17.3353 0.483556 17.316 0.397483 17.278C0.311409 17.24 0.234352 17.1842 0.171377 17.1143C0.108401 17.0444 0.0609335 16.962 0.032094 16.8724C0.00325444 16.7829 -0.00630383 16.6882 0.00404744 16.5947L0.517433 11.9276C0.535708 11.7784 0.603843 11.6398 0.710786 11.5342L11.6186 0.62641C11.8167 0.42784 12.0521 0.270302 12.3113 0.162815C12.5704 0.0553273 12.8482 0 13.1287 0C13.4093 0 13.687 0.0553273 13.9462 0.162815C14.2053 0.270302 14.4407 0.42784 14.6389 0.62641L16.7124 2.69995C16.911 2.89813 17.0685 3.13352 17.176 3.39265C17.2835 3.65178 17.3388 3.92957 17.3388 4.21011C17.3388 4.49065 17.2835 4.76843 17.176 5.02757C17.0685 5.2867 16.911 5.52209 16.7124 5.72026L5.8113 16.6214C5.70572 16.7283 5.5671 16.7964 5.41793 16.8147L0.75079 17.3281L0.670782 17.3348ZM1.82423 12.3009L1.42419 15.9146L5.03789 15.5146L15.7723 4.78017C15.8469 4.70583 15.9061 4.61751 15.9465 4.52026C15.9869 4.42301 16.0076 4.31874 16.0076 4.21344C16.0076 4.10814 15.9869 4.00387 15.9465 3.90662C15.9061 3.80937 15.8469 3.72105 15.7723 3.64672L13.6921 1.56651C13.6178 1.49192 13.5295 1.43273 13.4322 1.39235C13.335 1.35197 13.2307 1.33118 13.1254 1.33118C13.0201 1.33118 12.9158 1.35197 12.8186 1.39235C12.7213 1.43273 12.633 1.49192 12.5587 1.56651L1.82423 12.3009Z" fill="#858585"/>
<path d="M14.6722 7.47378C14.5844 7.47429 14.4975 7.45747 14.4162 7.42429C14.335 7.39111 14.2611 7.34222 14.1988 7.28043L10.0584 3.12667C9.99622 3.0645 9.94691 2.9907 9.91326 2.90948C9.87962 2.82826 9.8623 2.7412 9.8623 2.65329C9.8623 2.56537 9.87962 2.47832 9.91326 2.3971C9.94691 2.31587 9.99622 2.24207 10.0584 2.17991C10.1206 2.11774 10.1944 2.06843 10.2756 2.03479C10.3568 2.00114 10.4439 1.98383 10.5318 1.98383C10.6197 1.98383 10.7067 2.00114 10.788 2.03479C10.8692 2.06843 10.943 2.11774 11.0051 2.17991L15.1589 6.33366C15.2214 6.39564 15.271 6.46939 15.3048 6.55063C15.3387 6.63188 15.3561 6.71903 15.3561 6.80704C15.3561 6.89506 15.3387 6.98221 15.3048 7.06345C15.271 7.1447 15.2214 7.21844 15.1589 7.28043C15.095 7.34384 15.019 7.39366 14.9353 7.42689C14.8517 7.46012 14.7622 7.47607 14.6722 7.47378Z" fill="#858585"/>
<path d="M10.0618 6.3361L4.87109 11.5268L5.814 12.4697L11.0047 7.27901L10.0618 6.3361Z" fill="#858585"/>
<path d="M19.3394 17.3348H8.67162C8.49479 17.3348 8.3252 17.2645 8.20016 17.1395C8.07513 17.0144 8.00488 16.8449 8.00488 16.668C8.00488 16.4912 8.07513 16.3216 8.20016 16.1966C8.3252 16.0715 8.49479 16.0013 8.67162 16.0013H19.3394C19.5162 16.0013 19.6858 16.0715 19.8108 16.1966C19.9359 16.3216 20.0061 16.4912 20.0061 16.668C20.0061 16.8449 19.9359 17.0144 19.8108 17.1395C19.6858 17.2645 19.5162 17.3348 19.3394 17.3348Z" fill="#858585"/>
</svg>
