<svg width="22" height="22" viewBox="0 0 22 22" fill="none" xmlns="http://www.w3.org/2000/svg">
<rect x="1" y="1" width="20" height="20" rx="3" stroke="#828282" stroke-width="2"/>
<path d="M16.4645 15.758C16.4763 15.8252 16.4822 15.8925 16.4822 15.9597C16.4941 16.0157 16.5 16.083 16.5 16.1614C16.5 16.2959 16.4585 16.4191 16.3756 16.5312C16.3401 16.5872 16.2927 16.6433 16.2334 16.6993C16.1742 16.7441 16.1031 16.7833 16.0202 16.817C15.724 16.9739 15.4101 17.0299 15.0784 16.9851C14.9125 16.9402 14.7644 16.8674 14.6341 16.7665C14.6104 16.7441 14.5926 16.7329 14.5808 16.7329C14.5689 16.7217 14.5571 16.7049 14.5452 16.6825C14.5334 16.6713 14.5215 16.6601 14.5097 16.6489C14.4978 16.6265 14.4801 16.6096 14.4564 16.5984C14.3971 16.5424 14.3498 16.492 14.3142 16.4472C14.2787 16.3911 14.2431 16.3351 14.2076 16.2791C14.1839 16.223 14.1543 16.1726 14.1187 16.1278C14.095 16.0718 14.0654 16.0157 14.0299 15.9597C14.0062 15.9149 13.9825 15.8756 13.9588 15.842C13.9351 15.7972 13.9173 15.7524 13.9055 15.7075C13.8581 15.6067 13.8285 15.517 13.8166 15.4386L13.4435 14.6149C12.626 14.6149 11.8086 14.6205 10.9911 14.6318C10.1855 14.6318 9.37399 14.6261 8.55654 14.6149L8.18336 15.4386C8.15967 15.4834 8.1419 15.5282 8.13005 15.5731C8.13005 15.6179 8.1182 15.6627 8.09451 15.7075C8.07081 15.7524 8.04712 15.7972 8.02342 15.842C8.01158 15.8756 7.99381 15.9149 7.97011 15.9597C7.93457 16.0157 7.89903 16.0718 7.86349 16.1278C7.8398 16.1726 7.81018 16.223 7.77464 16.2791C7.75094 16.3351 7.72132 16.3911 7.68578 16.4472C7.65024 16.492 7.60285 16.5424 7.54362 16.5984C7.51992 16.6096 7.50215 16.6265 7.49031 16.6489C7.47846 16.6601 7.46661 16.6713 7.45477 16.6825C7.44292 16.7049 7.43107 16.7217 7.41922 16.7329C7.40738 16.7329 7.38961 16.7441 7.36591 16.7665C7.2356 16.8674 7.08751 16.9402 6.92165 16.9851C6.58993 17.0299 6.27598 16.9739 5.97981 16.817C5.89688 16.7833 5.82579 16.7441 5.76656 16.6993C5.70732 16.6433 5.65994 16.5872 5.62439 16.5312C5.54146 16.4191 5.5 16.2959 5.5 16.1614C5.5 16.083 5.5 16.0157 5.5 15.9597C5.51185 15.8925 5.52369 15.8252 5.53554 15.758C5.55924 15.6571 5.58885 15.5563 5.62439 15.4554C5.65994 15.3546 5.67771 15.3041 5.67771 15.3041L9.37399 6.69774L9.48061 6.42879C9.50431 6.36156 9.53393 6.29992 9.56947 6.24389C9.60501 6.18786 9.63463 6.12062 9.65832 6.04218C9.71755 5.8965 9.78271 5.76763 9.8538 5.65556C9.88934 5.58833 9.9308 5.52669 9.97819 5.47066C10.0256 5.41463 10.073 5.3586 10.1204 5.30257C10.1914 5.21292 10.2921 5.14008 10.4225 5.08405C10.5883 5.02802 10.7779 5 10.9911 5C11.2162 5 11.4117 5.02802 11.5775 5.08405C11.7079 5.14008 11.8086 5.21292 11.8796 5.30257C11.9626 5.40342 12.0514 5.52109 12.1462 5.65556C12.2173 5.76763 12.2824 5.8965 12.3417 6.04218C12.3654 6.12062 12.395 6.18786 12.4305 6.24389C12.4661 6.29992 12.4957 6.36156 12.5194 6.42879L12.626 6.69774L16.3223 15.3041C16.3223 15.3041 16.3401 15.3546 16.3756 15.4554C16.4111 15.5563 16.4408 15.6571 16.4645 15.758ZM12.2528 11.6397C12.0988 11.3147 11.9389 10.9785 11.773 10.6311C11.619 10.2837 11.4532 9.93074 11.2754 9.57214C11.2281 9.47128 11.1807 9.37043 11.1333 9.26957C11.0859 9.15751 11.0385 9.05105 10.9911 8.95019C10.9556 9.05105 10.9141 9.15751 10.8667 9.26957C10.8193 9.37043 10.7719 9.47128 10.7246 9.57214C10.5468 9.93074 10.3751 10.2837 10.2092 10.6311C10.0552 10.9785 9.90118 11.3147 9.74717 11.6397L9.4273 12.3793H12.5727L12.2528 11.6397Z" fill="#828282"/>
</svg>
